<?xml version="1.0" encoding="UTF-8" standalone="no"?>
<!-- Created with Inkscape (http://www.inkscape.org/) -->

<svg
   width="1024"
   height="1024"
   viewBox="0 0 270.93333 270.93333"
   version="1.1"
   id="svg1"
   xml:space="preserve"
   inkscape:version="1.4.4 (dcaf3e7d9e, 2026-05-05)"
   sodipodi:docname="book_icon.svg"
   inkscape:export-filename="../icons/icon.png"
   inkscape:export-xdpi="48"
   inkscape:export-ydpi="48"
   xmlns:inkscape="http://www.inkscape.org/namespaces/inkscape"
   xmlns:sodipodi="http://sodipodi.sourceforge.net/DTD/sodipodi-0.dtd"
   xmlns="http://www.w3.org/2000/svg"
   xmlns:svg="http://www.w3.org/2000/svg"><sodipodi:namedview
     id="namedview1"
     pagecolor="#ffffff"
     bordercolor="#000000"
     borderopacity="0.25"
     inkscape:showpageshadow="2"
     inkscape:pageopacity="0.0"
     inkscape:pagecheckerboard="0"
     inkscape:deskcolor="#d1d1d1"
     inkscape:document-units="mm"
     inkscape:zoom="0.42746609"
     inkscape:cx="540.39374"
     inkscape:cy="589.52045"
     inkscape:window-width="2560"
     inkscape:window-height="1371"
     inkscape:window-x="0"
     inkscape:window-y="0"
     inkscape:window-maximized="1"
     inkscape:current-layer="svg1" /><defs
     id="defs1"><inkscape:path-effect
       effect="fillet_chamfer"
       id="path-effect72"
       is_visible="true"
       lpeversion="1"
       nodesatellites_param="F,0,0,1,0,0,0,1 @ F,0,0,1,0,0,0,1 @ F,0,0,1,0,7.1787755,0,1 @ F,0,0,1,0,0,0,1 @ F,0,0,1,0,0,0,1 @ F,0,0,1,0,5.082583,0,1 @ F,0,0,1,0,0,0,1 @ F,0,0,1,0,0,0,1"
       radius="0"
       unit="px"
       method="auto"
       mode="F"
       chamfer_steps="1"
       flexible="false"
       use_knot_distance="true"
       apply_no_radius="true"
       apply_with_radius="true"
       only_selected="false"
       hide_knots="false" /><inkscape:path-effect
       effect="fillet_chamfer"
       id="path-effect70"
       is_visible="true"
       lpeversion="1"
       nodesatellites_param="F,0,0,1,0,0,0,1 @ F,0,0,1,0,0,0,1 @ F,0,0,1,0,0,0,1 @ F,0,0,1,0,0,0,1 @ F,0,0,1,0,0,0,1 @ F,0,0,1,0,0,0,1 @ F,0,0,1,0,0,0,1 @ F,0,0,1,0,0,0,1 @ F,0,0,1,0,0,0,1 @ F,0,0,1,0,0,0,1 @ F,0,1,1,0,0.52916665,0,1 @ F,0,0,1,0,0,0,1 @ F,0,0,1,0,0,0,1 @ F,0,0,1,0,0,0,1 @ F,0,0,1,0,0,0,1 @ F,0,0,1,0,0,0,1 @ F,0,0,1,0,0,0,1 @ F,0,0,1,0,0,0,1 @ F,0,0,1,0,0,0,1 @ F,0,0,1,0,0,0,1 @ F,0,0,1,0,0,0,1 @ F,0,0,1,0,0,0,1 @ F,0,0,1,0,0,0,1 @ F,0,0,1,0,0,0,1 @ F,0,0,1,0,0,0,1 @ F,0,0,1,0,0,0,1 @ F,0,0,1,0,0,0,1 @ F,0,0,1,0,0,0,1 @ F,0,0,1,0,0,0,1 @ F,0,0,1,0,0,0,1 @ F,0,0,1,0,0,0,1 @ F,0,0,1,0,0,0,1 @ F,0,0,1,0,0,0,1 @ F,0,0,1,0,0,0,1 @ F,0,0,1,0,0,0,1 @ F,0,0,1,0,0,0,1 @ F,0,0,1,0,0,0,1 @ F,0,0,1,0,0,0,1 @ F,0,0,1,0,0,0,1 @ F,0,0,1,0,0,0,1 @ F,0,0,1,0,0,0,1 @ F,0,0,1,0,0,0,1 @ F,0,0,1,0,0,0,1 @ F,0,0,1,0,0,0,1 @ F,0,0,1,0,0,0,1"
       radius="2"
       unit="px"
       method="auto"
       mode="F"
       chamfer_steps="1"
       flexible="false"
       use_knot_distance="true"
       apply_no_radius="true"
       apply_with_radius="true"
       only_selected="true"
       hide_knots="false" /><inkscape:path-effect
       effect="fillet_chamfer"
       id="path-effect59"
       is_visible="true"
       lpeversion="1"
       nodesatellites_param="F,0,0,1,0,0,0,1 @ F,0,0,1,0,0,0,1 @ F,0,1,1,0,0,0,1 @ F,0,1,1,0,0,0,1 @ F,0,0,1,0,0,0,1 @ IF,0,1,1,0,10.847916,0,1 @ F,0,0,1,0,0,0,1"
       radius="41"
       unit="px"
       method="auto"
       mode="IF"
       chamfer_steps="1"
       flexible="false"
       use_knot_distance="true"
       apply_no_radius="true"
       apply_with_radius="true"
       only_selected="true"
       hide_knots="false" /><inkscape:path-effect
       effect="fillet_chamfer"
       id="path-effect58"
       is_visible="true"
       lpeversion="1"
       nodesatellites_param="F,0,0,1,0,0,0,1 @ F,0,0,1,0,10.847916,0,1 @ F,0,0,1,0,10.847916,0,1 @ F,0,0,1,0,0,0,1"
       radius="40"
       unit="px"
       method="auto"
       mode="F"
       chamfer_steps="1"
       flexible="false"
       use_knot_distance="true"
       apply_no_radius="true"
       apply_with_radius="true"
       only_selected="true"
       hide_knots="false" /><inkscape:path-effect
       effect="fillet_chamfer"
       id="path-effect56"
       is_visible="true"
       lpeversion="1"
       nodesatellites_param="F,0,0,1,0,0,0,1 @ F,0,0,1,0,14.816666,0,1 @ F,0,0,1,0,14.816666,0,1 @ F,0,0,1,0,14.816666,0,1 @ F,0,0,1,0,0,0,1"
       radius="57"
       unit="px"
       method="auto"
       mode="F"
       chamfer_steps="1"
       flexible="false"
       use_knot_distance="true"
       apply_no_radius="true"
       apply_with_radius="true"
       only_selected="false"
       hide_knots="false" /><inkscape:path-effect
       effect="fillet_chamfer"
       id="path-effect51"
       is_visible="true"
       lpeversion="1"
       nodesatellites_param="F,0,0,1,0,0,0,1 @ F,0,0,1,0,10.847916,0,1 @ F,0,0,1,0,10.847916,0,1 @ F,0,0,1,0,0,0,1"
       radius="40"
       unit="px"
       method="auto"
       mode="F"
       chamfer_steps="1"
       flexible="false"
       use_knot_distance="true"
       apply_no_radius="true"
       apply_with_radius="true"
       only_selected="true"
       hide_knots="false" /><inkscape:path-effect
       effect="fillet_chamfer"
       id="path-effect49"
       is_visible="true"
       lpeversion="1"
       nodesatellites_param="F,0,0,1,0,0,0,1 @ F,0,0,1,0,10.847916,0,1 @ F,0,0,1,0,10.847916,0,1 @ F,0,0,1,0,0,0,1"
       radius="40"
       unit="px"
       method="auto"
       mode="F"
       chamfer_steps="1"
       flexible="false"
       use_knot_distance="true"
       apply_no_radius="true"
       apply_with_radius="true"
       only_selected="true"
       hide_knots="false" /><inkscape:path-effect
       effect="fillet_chamfer"
       id="path-effect47"
       is_visible="true"
       lpeversion="1"
       nodesatellites_param="F,0,0,1,0,0,0,1 @ F,0,0,1,0,10.847916,0,1 @ F,0,0,1,0,10.847916,0,1 @ F,0,0,1,0,0,0,1"
       radius="40"
       unit="px"
       method="auto"
       mode="F"
       chamfer_steps="1"
       flexible="false"
       use_knot_distance="true"
       apply_no_radius="true"
       apply_with_radius="true"
       only_selected="true"
       hide_knots="false" /><inkscape:path-effect
       effect="fillet_chamfer"
       id="path-effect45"
       is_visible="true"
       lpeversion="1"
       nodesatellites_param="F,0,0,1,0,33.848673,0,1 @ F,0,0,1,0,0,0,1 @ F,0,0,1,0,0,0,1 @ F,0,0,1,0,27.155104,0,1"
       radius="0"
       unit="px"
       method="auto"
       mode="F"
       chamfer_steps="1"
       flexible="false"
       use_knot_distance="true"
       apply_no_radius="true"
       apply_with_radius="true"
       only_selected="false"
       hide_knots="false" /><inkscape:path-effect
       effect="fillet_chamfer"
       id="path-effect42"
       is_visible="true"
       lpeversion="1"
       nodesatellites_param="F,0,0,1,0,0,0,1 @ F,0,0,1,0,0,0,1 @ F,0,1,1,0,1.8520833,0,1 @ F,0,1,1,0,1.8520833,0,1 @ F,0,1,1,0,1.8520833,0,1"
       radius="7"
       unit="px"
       method="auto"
       mode="F"
       chamfer_steps="1"
       flexible="false"
       use_knot_distance="true"
       apply_no_radius="true"
       apply_with_radius="true"
       only_selected="true"
       hide_knots="false" /><inkscape:path-effect
       effect="fillet_chamfer"
       id="path-effect40"
       is_visible="true"
       lpeversion="1"
       nodesatellites_param="F,0,0,1,0,0,0,1 @ F,0,0,1,0,0,0,1 @ F,0,0,1,0,7.1787755,0,1 @ F,0,0,1,0,0,0,1 @ F,0,0,1,0,0,0,1 @ F,0,0,1,0,5.082583,0,1 @ F,0,0,1,0,0,0,1 @ F,0,0,1,0,0,0,1"
       radius="0"
       unit="px"
       method="auto"
       mode="F"
       chamfer_steps="1"
       flexible="false"
       use_knot_distance="true"
       apply_no_radius="true"
       apply_with_radius="true"
       only_selected="false"
       hide_knots="false" /><inkscape:path-effect
       effect="fillet_chamfer"
       id="path-effect39"
       is_visible="true"
       lpeversion="1"
       nodesatellites_param="F,0,0,1,0,0,0,1 @ F,0,0,1,0,10.847916,0,1 @ F,0,0,1,0,10.847916,0,1 @ F,0,0,1,0,0,0,1"
       radius="40"
       unit="px"
       method="auto"
       mode="F"
       chamfer_steps="1"
       flexible="false"
       use_knot_distance="true"
       apply_no_radius="true"
       apply_with_radius="true"
       only_selected="true"
       hide_knots="false" /><inkscape:path-effect
       effect="fillet_chamfer"
       id="path-effect38"
       is_visible="true"
       lpeversion="1"
       nodesatellites_param="F,0,0,1,0,0,0,1 @ F,0,0,1,0,12.079135,0,1 @ F,0,0,1,0,10.849951,0,1 @ F,0,0,1,0,0,0,1"
       radius="13"
       unit="px"
       method="auto"
       mode="F"
       chamfer_steps="1"
       flexible="false"
       use_knot_distance="true"
       apply_no_radius="true"
       apply_with_radius="true"
       only_selected="true"
       hide_knots="false" /><inkscape:path-effect
       effect="fillet_chamfer"
       id="path-effect37"
       is_visible="true"
       lpeversion="1"
       nodesatellites_param="F,0,0,1,0,0,0,1 @ F,0,0,1,0,0,0,1 @ F,0,0,1,0,0,0,1 @ F,0,0,1,0,0,0,1 @ F,0,0,1,0,0,0,1 @ F,0,0,1,0,0,0,1 @ F,0,0,1,0,0,0,1 @ F,0,0,1,0,0,0,1 @ F,0,0,1,0,0,0,1 @ F,0,0,1,0,0,0,1 @ F,0,1,1,0,0.52916665,0,1 @ F,0,0,1,0,0,0,1 @ F,0,0,1,0,0,0,1 @ F,0,0,1,0,0,0,1 @ F,0,0,1,0,0,0,1 @ F,0,0,1,0,0,0,1 @ F,0,0,1,0,0,0,1 @ F,0,0,1,0,0,0,1 @ F,0,0,1,0,0,0,1 @ F,0,0,1,0,0,0,1 @ F,0,0,1,0,0,0,1 @ F,0,0,1,0,0,0,1 @ F,0,0,1,0,0,0,1 @ F,0,0,1,0,0,0,1 @ F,0,0,1,0,0,0,1 @ F,0,0,1,0,0,0,1 @ F,0,0,1,0,0,0,1 @ F,0,0,1,0,0,0,1 @ F,0,0,1,0,0,0,1 @ F,0,0,1,0,0,0,1 @ F,0,0,1,0,0,0,1 @ F,0,0,1,0,0,0,1 @ F,0,0,1,0,0,0,1 @ F,0,0,1,0,0,0,1 @ F,0,0,1,0,0,0,1 @ F,0,0,1,0,0,0,1 @ F,0,0,1,0,0,0,1 @ F,0,0,1,0,0,0,1 @ F,0,0,1,0,0,0,1 @ F,0,0,1,0,0,0,1 @ F,0,0,1,0,0,0,1 @ F,0,0,1,0,0,0,1 @ F,0,0,1,0,0,0,1 @ F,0,0,1,0,0,0,1 @ F,0,0,1,0,0,0,1"
       radius="2"
       unit="px"
       method="auto"
       mode="F"
       chamfer_steps="1"
       flexible="false"
       use_knot_distance="true"
       apply_no_radius="true"
       apply_with_radius="true"
       only_selected="true"
       hide_knots="false" /><inkscape:path-effect
       effect="fillet_chamfer"
       id="path-effect36"
       is_visible="true"
       lpeversion="1"
       nodesatellites_param="F,0,0,1,0,0,0,1 @ F,0,0,1,0,0,0,1 @ F,0,0,1,0,0,0,1 @ F,0,1,1,0,0.52916665,0,1 @ F,0,1,1,0,0,0,1 @ F,0,0,1,0,0,0,1 @ F,0,0,1,0,0,0,1 @ F,0,0,1,0,0,0,1 @ F,0,0,1,0,0,0,1 @ F,0,0,1,0,0,0,1 @ F,0,0,1,0,0,0,1 @ F,0,0,1,0,0,0,1 @ F,0,0,1,0,0,0,1 @ F,0,0,1,0,0,0,1 @ F,0,0,1,0,0,0,1 @ F,0,0,1,0,0,0,1 @ F,0,0,1,0,0,0,1 @ F,0,0,1,0,0,0,1 @ F,0,0,1,0,0,0,1 @ F,0,0,1,0,0,0,1 @ F,0,0,1,0,0,0,1 @ F,0,0,1,0,0,0,1 @ F,0,0,1,0,0,0,1 @ F,0,0,1,0,0,0,1 @ F,0,0,1,0,0,0,1 @ F,0,0,1,0,0,0,1 @ F,0,0,1,0,0,0,1 @ F,0,0,1,0,0,0,1 @ F,0,0,1,0,0,0,1 @ F,0,0,1,0,0,0,1 @ F,0,0,1,0,0,0,1 @ F,0,0,1,0,0,0,1 @ F,0,0,1,0,0,0,1 @ F,0,0,1,0,0,0,1 @ F,0,0,1,0,0,0,1 @ F,0,0,1,0,0,0,1 @ F,0,0,1,0,0,0,1 @ F,0,0,1,0,0,0,1 @ F,0,0,1,0,0,0,1 @ F,0,0,1,0,0,0,1"
       radius="2"
       unit="px"
       method="auto"
       mode="F"
       chamfer_steps="1"
       flexible="false"
       use_knot_distance="true"
       apply_no_radius="true"
       apply_with_radius="true"
       only_selected="true"
       hide_knots="false" /><inkscape:path-effect
       effect="fillet_chamfer"
       id="path-effect35"
       is_visible="true"
       lpeversion="1"
       nodesatellites_param="F,0,0,1,0,0,0,1 @ F,0,0,1,0,0,0,1 @ F,0,0,1,0,0,0,1 @ F,0,1,1,0,0,0,1 @ F,0,0,1,0,0,0,1 @ F,0,0,1,0,0,0,1 @ F,0,0,1,0,0,0,1 @ F,0,0,1,0,0,0,1 @ F,0,0,1,0,0,0,1 @ F,0,0,1,0,0,0,1 @ F,0,0,1,0,0,0,1 @ F,0,0,1,0,0,0,1 @ F,0,0,1,0,0,0,1 @ F,0,0,1,0,0,0,1 @ F,0,0,1,0,0,0,1 @ F,0,0,1,0,0,0,1 @ F,0,0,1,0,0,0,1 @ F,0,0,1,0,0,0,1 @ F,0,0,1,0,0,0,1 @ F,0,0,1,0,0,0,1 @ F,0,0,1,0,0,0,1 @ F,0,0,1,0,0,0,1 @ F,0,0,1,0,0,0,1 @ F,0,0,1,0,0,0,1 @ F,0,0,1,0,0,0,1 @ F,0,0,1,0,0,0,1 @ F,0,0,1,0,0,0,1 @ F,0,0,1,0,0,0,1 @ F,0,0,1,0,0,0,1 @ F,0,0,1,0,0,0,1 @ F,0,0,1,0,0,0,1 @ F,0,0,1,0,0,0,1 @ F,0,0,1,0,0,0,1 @ F,0,0,1,0,0,0,1 @ F,0,0,1,0,0,0,1 @ F,0,0,1,0,0,0,1 @ F,0,1,1,0,1.8520833,0,1 @ F,0,1,1,0,1.8520833,0,1"
       radius="7"
       unit="px"
       method="auto"
       mode="F"
       chamfer_steps="1"
       flexible="false"
       use_knot_distance="true"
       apply_no_radius="true"
       apply_with_radius="true"
       only_selected="true"
       hide_knots="false" /><inkscape:path-effect
       effect="fillet_chamfer"
       id="path-effect34"
       is_visible="true"
       lpeversion="1"
       nodesatellites_param="F,0,0,1,0,2.1166666,0,1 @ F,0,0,1,0,2.1166666,0,1 @ F,0,0,1,0,2.1166666,0,1 @ F,0,0,1,0,2.1166666,0,1 @ F,0,0,1,0,2.1166666,0,1 @ F,0,0,1,0,2.1166666,0,1 @ F,0,0,1,0,2.1166666,0,1 @ F,0,0,1,0,2.1166666,0,1 @ F,0,0,1,0,2.1166666,0,1 @ F,0,0,1,0,2.1166666,0,1 @ F,0,0,1,0,2.1166666,0,1 @ F,0,0,1,0,2.1166666,0,1 @ F,0,0,1,0,2.1166666,0,1 @ F,0,0,1,0,2.1166666,0,1 @ F,0,0,1,0,2.1166666,0,1 @ F,0,0,1,0,2.1166666,0,1 @ F,0,0,1,0,2.1166666,0,1 @ F,0,0,1,0,2.1166666,0,1 @ F,0,0,1,0,2.1166666,0,1 @ F,0,0,1,0,2.1166666,0,1 @ F,0,0,1,0,2.1166666,0,1 @ F,0,0,1,0,2.1166666,0,1 @ F,0,0,1,0,2.1166666,0,1 @ F,0,0,1,0,2.1166666,0,1 @ F,0,0,1,0,2.1166666,0,1 @ F,0,0,1,0,2.1166666,0,1 @ F,0,0,1,0,2.1166666,0,1 @ F,0,0,1,0,2.1166666,0,1 @ F,0,0,1,0,2.1166666,0,1 @ F,0,0,1,0,2.1166666,0,1 @ F,0,0,1,0,2.1166666,0,1 @ F,0,0,1,0,2.1166666,0,1 @ F,0,0,1,0,2.1166666,0,1 @ F,0,0,1,0,2.1166666,0,1 @ F,0,0,1,0,2.1166666,0,1 @ F,0,0,1,0,2.1166666,0,1 @ F,0,0,1,0,2.1166666,0,1 @ F,0,0,1,0,2.1166666,0,1"
       radius="8"
       unit="px"
       method="auto"
       mode="F"
       chamfer_steps="1"
       flexible="false"
       use_knot_distance="true"
       apply_no_radius="true"
       apply_with_radius="true"
       only_selected="false"
       hide_knots="false" /></defs><circle
     style="display:inline;fill:#fdf6e8;stroke-width:6.00001;stroke-linecap:round"
     id="path1"
     cx="159.46675"
     cy="177.45699"
     transform="translate(-24.000086,-41.990314)"
     inkscape:label="CircleCut"
     r="84.666664" /><rect
     style="display:inline;fill:#fdf6e8;stroke-width:6.00001;stroke-linecap:round"
     id="rect1"
     width="270.93332"
     height="270.93332"
     x="24.000086"
     y="41.990314"
     transform="translate(-24.000086,-41.990314)" /><g
     inkscape:label="Layer 1"
     inkscape:groupmode="layer"
     id="layer1"
     transform="translate(-24.000086,-41.990314)"
     style="display:inline"><g
       id="g80"
       transform="matrix(0.52256001,0,0,0.52256001,91.995994,95.638)"><g
         id="g55"
         inkscape:label="pages"><path
           id="path54"
           style="display:inline;fill:#fdf6e8;fill-opacity:1;stroke:none;stroke-width:0.265533"
           d="m 182.05664,61.580367 c -41.76367,6.48e-4 -83.527343,0.0013 -125.291015,0.002 L 41.034683,260.05121 c 43.208856,-0.0134 102.149857,0.023 145.357937,-0.0748 7.2174,-0.47612 13.60224,-6.89943 13.74669,-14.18331 0.22827,-4.66365 0.0125,-9.33398 0.0969,-14.0005 -0.0144,-52.12004 0.0245,-104.24132 -0.0729,-156.36066 -0.4761,-7.116167 -6.70402,-13.415511 -13.8684,-13.754151 -1.40838,-0.126473 -2.82553,-0.106038 -4.2383,-0.09739 z"
           sodipodi:nodetypes="cccccccccc" /><path
           id="path55"
           style="display:inline;fill:#f6d3b0;fill-opacity:1;stroke:none;stroke-width:0.265533"
           d="m 182.05664,56.813684 c -41.76367,6.48e-4 -83.527343,0.0013 -125.291015,0.002 L 39.789212,255.28454 c 43.208856,-0.0134 103.395328,0.023 146.603408,-0.0748 7.2174,-0.47612 13.60224,-6.89943 13.74669,-14.18331 0.22827,-4.66365 0.0125,-9.33398 0.0969,-14.0005 -0.0144,-52.12004 0.0245,-104.24132 -0.0729,-156.360673 -0.4761,-7.116167 -6.70402,-13.415511 -13.8684,-13.754151 -1.40838,-0.126473 -2.82553,-0.106038 -4.2383,-0.09739 z"
           sodipodi:nodetypes="cccccccccc" /><path
           id="path52"
           style="display:inline;fill:#fdf6e8;fill-opacity:1;stroke:none;stroke-width:0.265533"
           d="m 182.05664,52.055361 c -41.76367,6.48e-4 -83.527343,0.0013 -125.291015,0.002 L 37.268488,250.52615 c 43.208856,-0.0134 105.916052,0.023 149.124132,-0.0748 7.2174,-0.47612 13.60224,-6.89943 13.74669,-14.18331 0.22827,-4.66365 0.0125,-9.33398 0.0969,-14.0005 -0.0144,-52.12004 0.0245,-104.24132 -0.0729,-156.360606 -0.4761,-7.116167 -6.70402,-13.415511 -13.8684,-13.754151 -1.40838,-0.126473 -2.82553,-0.106038 -4.2383,-0.09739 z"
           sodipodi:nodetypes="cccccccccc" /><path
           id="path53"
           style="display:inline;fill:#f6d3b0;fill-opacity:1;stroke:none;stroke-width:0.265533"
           d="m 182.05664,47.288678 c -41.76367,6.48e-4 -83.527343,0.0013 -125.291015,0.002 L 36.31823,245.75948 c 43.208856,-0.0134 106.86631,0.023 150.07439,-0.0748 7.2174,-0.47612 13.60224,-6.89943 13.74669,-14.18331 0.22827,-4.66365 0.0125,-9.33398 0.0969,-14.0005 -0.0144,-52.12004 0.0245,-104.24132 -0.0729,-156.360619 -0.4761,-7.116167 -6.70402,-13.415511 -13.8684,-13.754151 -1.40838,-0.126473 -2.82553,-0.106038 -4.2383,-0.09739 z"
           sodipodi:nodetypes="cccccccccc" /><path
           id="path51"
           style="display:inline;fill:#fdf6e8;fill-opacity:1;stroke:none;stroke-width:0.265533"
           d="m 182.05664,42.530355 c -41.76367,6.48e-4 -83.527343,0.0013 -125.291015,0.002 L 36.568356,241.00109 c 43.208856,-0.0134 106.616184,0.023 149.824264,-0.0748 7.2174,-0.47612 13.60224,-6.89943 13.74669,-14.18331 0.22827,-4.66365 0.0125,-9.33398 0.0969,-14.0005 -0.0144,-52.12004 0.0245,-104.24132 -0.0729,-156.360552 -0.4761,-7.116167 -6.70402,-13.415511 -13.8684,-13.754151 -1.40838,-0.126473 -2.82553,-0.106038 -4.2383,-0.09739 z"
           sodipodi:nodetypes="cccccccccc" /><path
           id="path49"
           style="display:inline;fill:#f6d3b0;fill-opacity:1;stroke:none;stroke-width:0.265533"
           d="m 182.05664,41.997005 c -41.76367,6.48e-4 -83.527343,0.0013 -125.291015,0.002 L 38.152235,236.23443 c 43.208856,-0.0134 105.032305,0.023 148.240385,-0.0748 7.2174,-0.47612 13.60224,-6.89943 13.74669,-14.18331 0.22827,-4.66365 0.0125,-9.33398 0.0969,-14.0005 -0.0144,-52.12004 0.0245,-100.00799 -0.0729,-152.127242 -0.4761,-7.116167 -6.70402,-13.415511 -13.8684,-13.754151 -1.40838,-0.126473 -2.82553,-0.106038 -4.2383,-0.09739 z"
           sodipodi:nodetypes="cccccccccc" /></g><g
         id="g71"
         inkscape:label="cuillère"
         transform="translate(3.7041668)"><path
           id="path80"
           style="fill:#bb6d3b;fill-opacity:1;stroke-width:0.264583"
           d="m 196.52754,136.04389 c 9e-4,7.10212 0.001,14.20866 0.001,21.34444 l 7.01404,-29.89224 -7.02127,-14.55621 c 3.5e-4,0.80499 7.1e-4,1.60984 0.001,2.41432 0.73349,3.06974 1.4902,6.79238 1.51929,9.186 0.0272,2.23326 -0.40237,4.45109 -0.71779,6.66213 -0.23101,1.61937 -0.50441,3.23192 -0.79633,4.84156 z" /><path
           id="path76"
           style="display:inline;fill:#e59c61;fill-opacity:1;stroke-width:0.314807"
           d="m 246.35045,69.949278 6.87404,-0.413569 -1.3557,-36.768542 c -0.10341,-2.805128 1.68312,-6.422443 3.5421,-8.51899 5.43148,-6.125579 8.68347,-15.4084496 8.68357,-25.36087 4e-5,-18.021925 -10.48728,-32.631617 -23.42408,-32.631648 -2.04712,-5.3e-5 -4.08542,0.373731 -6.06279,1.111799 -10.24059,3.8226 -17.36142,16.750432 -17.36142,31.5196001 -2e-5,2.147307 0.15059,4.2554275 0.43931,6.3024915 2.89424,6.5288484 5.76916,13.0194894 8.6357,19.4932704 0.69345,0.749101 1.41952,1.446238 2.1753,2.086646 3.00959,2.550189 6.80942,6.792315 7.63436,10.670272 l 3.85473,18.120786 c 2.11602,4.783617 4.23659,9.576851 6.36488,14.388754 z"
           transform="matrix(0.91234218,0.40942855,-0.40354009,0.91496197,0,0)" /><ellipse
           style="display:inline;fill:#bb6d3b;fill-opacity:1;stroke-width:0.265865"
           id="ellipse71"
           cx="240.67009"
           cy="-1.1128368"
           rx="19.782446"
           ry="27.55843"
           transform="matrix(0.91234218,0.40942855,-0.40354008,0.91496197,0,0)" /></g><path
         id="path68"
         style="fill:#d65931;fill-opacity:1;stroke:none;stroke-width:70;stroke-linecap:round;stroke-dasharray:none;stroke-opacity:1"
         d="M 57.701975,42.388872 A 33.848673,33.848673 0 0 0 23.853197,76.237343 V 235.69101 a 27.155104,27.155104 0 0 0 25.685301,27.11503 c -7.67988,-1.98596 -13.391744,-8.99884 -13.391743,-17.29113 v -0.54787 c -3e-6,-9.82758 8.007295,-17.86342 17.819636,-17.88456 l 6.906047,-0.015 V 42.388872 Z"
         transform="matrix(0.99947508,0,0,0.99792689,0.15940971,-0.30097442)" /><path
         style="display:inline;fill:#fdf6e8;fill-opacity:1;stroke:none;stroke-width:0.264583"
         id="rect37"
         width="134.50157"
         height="189.34224"
         x="60.986649"
         y="42.312447"
         inkscape:label="page"
         sodipodi:type="rect"
         inkscape:path-effect="#path-effect39"
         d="M 60.986649,42.312447 H 184.6403 a 10.847916,10.847916 45 0 1 10.84792,10.847916 V 220.80677 a 10.847916,10.847916 135 0 1 -10.84792,10.84792 l -123.653651,0 z"
         transform="matrix(1.0037057,0,0,1.0034739,-0.21265211,-0.45943683)" /><path
         style="display:inline;fill:#b84623;fill-opacity:1;stroke-width:0.264583"
         d="m 103.55367,146.42973 c 0,0 6.31316,-2.76039 9.73065,-3.39499 3.04179,-0.56484 6.19655,-0.68165 9.27415,-0.36564 2.34888,0.24118 6.47634,1.48712 7.90576,1.93422 0.27879,0.0872 0.3317,-0.003 0.11521,-0.19889 -1.04332,-0.94614 -3.98387,-3.50453 -6.3292,-4.50443 -2.51527,-1.07235 -6.27164,-2.06794 -9.00472,-2.15053 -2.70908,-0.0819 -5.44138,0.30089 -8.07749,0.93074 -3.13698,0.74952 -9.074716,3.35731 -9.074716,3.35731 0,0 -5.101642,-2.45073 -7.013789,-4.45425 -1.911963,-2.00333 -3.373369,-4.54701 -4.121846,-7.21323 -0.742994,-2.64668 -0.711051,-5.53665 -0.232685,-8.2437 0.433593,-2.45368 1.396136,-4.86135 2.758977,-6.94731 1.431323,-2.19078 3.333893,-4.14288 5.517957,-5.58443 2.017767,-1.33178 4.359347,-2.28505 6.747862,-2.65926 2.20488,-0.34544 6.68138,0.43213 6.68138,0.43213 0,0 1.71578,-5.59167 3.29083,-8.011008 1.22283,-1.878303 2.83206,-3.547403 4.6537,-4.853144 1.9983,-1.432373 4.33269,-2.397614 6.68138,-3.124626 2.34917,-0.727161 4.82137,-1.258992 7.27972,-1.196665 2.14218,0.05431 4.27615,0.61021 6.28249,1.362869 2.06164,0.773403 4.01509,1.879669 5.78388,3.191107 1.39104,1.031361 2.62958,2.280399 3.72296,3.623236 1.05383,1.294265 1.968,2.717981 2.6925,4.221571 0.71184,1.47732 1.26408,3.04767 1.59555,4.6537 0.14601,0.70743 0.1662,2.16064 0.1662,2.16064 0,0 2.03394,-0.30765 3.05815,-0.29916 2.14125,0.0177 4.34991,0.0567 6.38221,0.73129 1.86138,0.61781 3.56219,1.72353 5.08583,2.95842 1.46265,1.18546 2.78087,2.59854 3.78944,4.18833 1.04833,1.65246 1.79079,3.51847 2.26037,5.41824 0.38707,1.56595 0.47445,3.20738 0.43213,4.8199 -0.0493,1.87973 -0.22209,3.79435 -0.79778,5.58444 -0.54319,1.68903 -1.42862,3.2764 -2.45981,4.72018 -0.89737,1.25642 -1.9846,2.39388 -3.19111,3.35731 -1.2696,1.01381 -2.67014,1.91443 -4.18833,2.49305 -2.01433,0.76771 -6.34897,1.22991 -6.34897,1.22991 l 0.0688,19.23803 c 0.004,1.0218 -0.82366,1.85207 -1.84546,1.85207 h -47.42004 c -1.02287,0 -1.85208,-0.82921 -1.85208,-1.85208 z"
         id="path34"
         sodipodi:nodetypes="csscssscsssssscssssssssscsssssssssscccc"
         inkscape:path-effect="#path-effect35;#path-effect36"
         inkscape:original-d="m 103.55367,146.42973 c 0,0 6.31316,-2.76039 9.73065,-3.39499 3.04179,-0.56484 6.19655,-0.68165 9.27415,-0.36564 2.87379,0.29508 8.4099,2.09416 8.4099,2.09416 0,0 -3.81505,-3.62557 -6.71813,-4.86326 -2.51527,-1.07235 -6.27164,-2.06794 -9.00472,-2.15053 -2.70908,-0.0819 -5.44138,0.30089 -8.07749,0.93074 -3.13698,0.74952 -9.074716,3.35731 -9.074716,3.35731 0,0 -5.101642,-2.45073 -7.013789,-4.45425 -1.911963,-2.00333 -3.373369,-4.54701 -4.121846,-7.21323 -0.742994,-2.64668 -0.711051,-5.53665 -0.232685,-8.2437 0.433593,-2.45368 1.396136,-4.86135 2.758977,-6.94731 1.431323,-2.19078 3.333893,-4.14288 5.517957,-5.58443 2.017767,-1.33178 4.359347,-2.28505 6.747862,-2.65926 2.20488,-0.34544 6.68138,0.43213 6.68138,0.43213 0,0 1.71578,-5.59167 3.29083,-8.011008 1.22283,-1.878303 2.83206,-3.547403 4.6537,-4.853144 1.9983,-1.432373 4.33269,-2.397614 6.68138,-3.124626 2.34917,-0.727161 4.82137,-1.258992 7.27972,-1.196665 2.14218,0.05431 4.27615,0.61021 6.28249,1.362869 2.06164,0.773403 4.01509,1.879669 5.78388,3.191107 1.39104,1.031361 2.62958,2.280399 3.72296,3.623236 1.05383,1.294265 1.968,2.717981 2.6925,4.221571 0.71184,1.47732 1.26408,3.04767 1.59555,4.6537 0.14601,0.70743 0.1662,2.16064 0.1662,2.16064 0,0 2.03394,-0.30765 3.05815,-0.29916 2.14125,0.0177 4.34991,0.0567 6.38221,0.73129 1.86138,0.61781 3.56219,1.72353 5.08583,2.95842 1.46265,1.18546 2.78087,2.59854 3.78944,4.18833 1.04833,1.65246 1.79079,3.51847 2.26037,5.41824 0.38707,1.56595 0.47445,3.20738 0.43213,4.8199 -0.0493,1.87973 -0.22209,3.79435 -0.79778,5.58444 -0.54319,1.68903 -1.42862,3.2764 -2.45981,4.72018 -0.89737,1.25642 -1.9846,2.39388 -3.19111,3.35731 -1.2696,1.01381 -2.67014,1.91443 -4.18833,2.49305 -2.01433,0.76771 -6.34897,1.22991 -6.34897,1.22991 l 0.0754,21.0901 h -51.1242 z"
         inkscape:label="toque" /><g
         id="g41"
         inkscape:label="lines"
         style="display:inline"><path
           style="fill:#f6d3b0;fill-opacity:1;stroke:#f6d3b0;stroke-width:7;stroke-linecap:round;stroke-dasharray:none;stroke-opacity:1"
           d="m 97.42709,184.1953 h 61.51789"
           id="path41" /><path
           style="fill:#f6d3b0;fill-opacity:1;stroke:#f6d3b0;stroke-width:7;stroke-linecap:round;stroke-dasharray:none;stroke-opacity:1"
           d="m 97.42709,198.498 h 44.55575"
           id="path41-0"
           sodipodi:nodetypes="cc" /></g><path
         id="path67"
         style="baseline-shift:baseline;display:inline;overflow:visible;opacity:1;vector-effect:none;fill:#b84623;stroke-linecap:round;enable-background:accumulate;stop-color:#000000;stop-opacity:1"
         d="m 203.18966,204.08005 c -1.65685,0 -3.00033,1.34297 -3.00033,2.99982 v 20.01014 2.70113 14.91382 c 0,6.5617 -5.25463,11.81634 -11.81633,11.81633 H 54.105225 c -6.5617,0 -11.817885,-5.25463 -11.817884,-11.81633 v -0.54674 c -2e-6,-6.56914 5.254959,-11.83371 11.824085,-11.84785 L 185.1117,232.0277 v -0.0279 a 10.752114,10.752114 0 0 0 9.73842,-5.99291 l -140.752647,0.30385 c -9.807191,0.0211 -17.810285,8.04028 -17.810282,17.84749 v 0.54674 c -2e-6,9.80434 8.013693,17.81648 17.818034,17.81648 H 188.373 c 9.80434,10e-6 17.81649,-8.01214 17.81648,-17.81648 v -37.62509 c 0,-1.65685 -1.34297,-2.99982 -2.99982,-2.99982 z"
         inkscape:label="border" /><g
         id="g82"
         inkscape:label="leaf"><path
           id="path81"
           style="fill:#fdf6e8;fill-opacity:1;stroke:none;stroke-width:6.00001;stroke-linecap:round;stroke-dasharray:none;stroke-opacity:1"
           d="m 196.00159,204.46645 c 0.12355,-0.3797 0.25212,-0.75786 0.38602,-1.13378 1.08555,-3.04776 2.43156,-6.03134 4.14083,-8.77828 2.01345,-3.23579 4.46555,-6.21151 7.12205,-8.94415 2.46701,-2.53771 5.40156,-4.57473 8.11578,-6.8461 1.94437,-1.62713 3.93703,-3.19688 5.85236,-4.8581 1.5945,-1.38296 3.24166,-2.71864 4.69273,-4.25142 1.20533,-1.2732 2.35796,-2.61489 3.31246,-4.08554 1.03582,-1.59594 2.58538,-5.08858 2.58538,-5.08858 0,0 -2.13521,2.24961 -3.30316,3.26647 -1.78225,1.55169 -3.74163,2.88763 -5.63118,4.30671 -1.46276,1.09856 -2.92321,2.20089 -4.41679,3.25717 -1.63363,1.15533 -3.34547,2.19854 -4.9692,3.36775 -1.99232,1.43463 -3.94965,2.91992 -5.85184,4.47208 -1.60694,1.31123 -3.20705,2.63891 -4.69326,4.08554 -1.77332,1.72609 -3.54751,3.47985 -5.02398,5.46582 -0.89039,1.19765 -1.61078,2.51199 -2.31975,3.8287 -3.2e-4,-3.58761 0.002,13.98122 0.002,11.93571 z"
           sodipodi:nodetypes="cssssssscssssssscc"
           inkscape:label="inner_leaf" /><path
           id="path74"
           style="display:inline;fill:#6e7e61;fill-opacity:1;stroke-width:0.264583"
           inkscape:label="leaf"
           d="m 195.99629,221.787 c 0.3172,-0.50001 0.62378,-0.96665 0.8878,-1.33894 1.08238,-1.52624 2.21152,-3.03801 3.53363,-4.36201 1.3404,-1.34232 2.82901,-2.55041 4.41679,-3.58841 1.71542,-1.12145 3.6553,-1.85544 5.46581,-2.81585 3.22297,-1.70967 6.49828,-3.33452 9.60665,-5.24464 2.73996,-1.68372 5.43822,-3.4574 7.9499,-5.46582 1.84094,-1.47207 3.59135,-3.07104 5.18987,-4.80332 1.41316,-1.53141 2.6599,-3.21384 3.86488,-4.91391 1.94255,-2.74068 3.89389,-5.50488 5.41052,-8.50233 1.63089,-3.22328 2.89158,-6.64024 3.91966,-10.10325 0.63687,-2.14526 1.02874,-4.36013 1.38028,-6.57015 0.42749,-2.68747 0.71167,-5.39996 0.88366,-8.11578 0.19313,-3.04933 0.30108,-6.11239 0.16537,-9.16482 -0.12057,-2.7116 -0.76147,-7.63762 -0.97772,-9.24749 -0.0389,-0.28966 -0.30466,-0.48602 -0.59273,-0.43822 -1.33525,0.22155 -4.90959,0.82308 -6.87658,1.23869 -3.0395,0.64222 -6.09242,1.27124 -9.05423,2.20865 -3.41132,1.07969 -6.72786,2.45663 -9.99319,3.91965 -3.01186,1.34945 -6.06514,2.67539 -8.83357,4.47208 -3.93952,2.55671 -7.57578,5.60331 -10.93163,8.88886 -1.93723,1.89666 -3.80201,3.90217 -5.41207,6.08594 -9e-5,9.45796 -3.4e-4,18.97402 5.1e-4,28.60497 0.70897,-1.31671 1.42937,-2.63106 2.31976,-3.82871 1.47647,-1.98597 3.25066,-3.73972 5.02398,-5.46581 1.48621,-1.44663 3.08631,-2.77431 4.69325,-4.08554 1.90219,-1.55216 3.85952,-3.03745 5.85184,-4.47208 1.62373,-1.16921 3.33558,-2.21242 4.96921,-3.36775 1.49358,-1.05628 2.95402,-2.15861 4.41678,-3.25717 1.88955,-1.41908 3.84893,-2.75502 5.63118,-4.30671 1.16795,-1.01686 3.30316,-3.26647 3.30316,-3.26647 0,0 -1.54955,3.49264 -2.58537,5.08858 -0.9545,1.47065 -2.10713,2.81234 -3.31246,4.08554 -1.45107,1.53278 -3.09824,2.86846 -4.69274,4.25142 -1.91533,1.66122 -3.90798,3.23097 -5.85235,4.8581 -2.71422,2.27137 -5.64878,4.30838 -8.11579,6.84609 -2.6565,2.73264 -5.10859,5.70837 -7.12204,8.94416 -1.70927,2.74694 -3.05528,5.73052 -4.14083,8.77828 -0.1339,0.37592 -0.26248,0.75408 -0.38603,1.13378 4.2e-4,2.04551 9.8e-4,4.09698 0.002,6.15518 -0.0673,3.7211 0.0562,7.44458 -0.007,11.16521 z" /><g
           id="g56"
           inkscape:label="signet"><path
             style="display:inline;fill:#6f8061;fill-opacity:1;stroke:none;stroke-width:7;stroke-linecap:round;stroke-dasharray:none;stroke-opacity:1"
             d="m 67.779984,231.13874 h 33.195026 v 42.38068 a 0.93062206,0.93062206 153.3217 0 1 -1.486048,0.7467 L 85.863545,264.13096 a 2.4898895,2.4898895 0 0 0 -2.972096,0 l -13.625417,10.13516 a 0.93062206,0.93062206 26.678298 0 1 -1.486048,-0.7467 z"
             id="path42"
             sodipodi:nodetypes="cccccc"
             inkscape:path-effect="#path-effect42"
             inkscape:original-d="M 67.779984,231.13874 H 100.97501 V 275.3715 L 84.377497,263.02558 67.779984,275.3715 Z"
             inkscape:label="signet"
             transform="translate(0,1.0583333)" /><rect
             style="fill:#536048;fill-opacity:1;stroke:none;stroke-width:70;stroke-linecap:round;stroke-dasharray:none;stroke-opacity:1"
             id="rect55"
             width="33.195023"
             height="3.349283"
             x="67.779984"
             y="232.19707" /></g></g></g></g><g
     inkscape:groupmode="layer"
     id="layer2"
     inkscape:label="Base"
     style="display:none"
     transform="translate(-24.000086,-41.990314)"><g
       id="g40"
       inkscape:label="cuillère"><path
         style="fill:#bb6d3b;fill-opacity:1;stroke-width:0.264583"
         d="m 195.13835,110.07279 c 0,0 1.78783,9.25213 1.84479,13.93845 0.0272,2.23326 -0.402,4.45072 -0.71742,6.66176 -0.57826,4.05352 -1.42454,8.06429 -2.15226,12.09366 -1.17902,6.52815 -3.5871,19.57533 -3.5871,19.57533 l 4.40701,1.84479 8.60904,-36.69093 z"
         id="path40"
         sodipodi:nodetypes="cssscccc" /><path
         id="path39-2"
         style="display:inline;fill:#e59c61;fill-opacity:1;stroke-width:0.314807"
         d="m 234.60759,-32.632542 c -10.24059,3.8226 -17.36141,16.750432 -17.36142,31.5196 -8e-5,11.607214 4.39785,22.075838 11.25041,27.882378 3.0096,2.550189 6.8092,6.79223 7.63414,10.670187 l 6.95739,32.706051 10.13638,-0.609965 -1.3555,-36.768482 c -0.10342,-2.805128 1.68303,-6.422509 3.54202,-8.519057 5.43147,-6.125578 8.68335,-15.4084427 8.68345,-25.3608631 4e-5,-18.0219249 -10.48729,-32.6316169 -23.42408,-32.6316479 -2.04712,-5.3e-5 -4.08542,0.373731 -6.06279,1.111799 z"
         transform="matrix(0.91234218,0.40942855,-0.40354009,0.91496197,0,0)"
         inkscape:original-d="m 234.60759,-32.632542 a 23.42412,32.631554 0 0 0 -17.36142,31.5196 23.42412,32.631554 0 0 0 17.39087,31.530903 l 8.45107,39.727713 10.13638,-0.609965 -1.54275,-41.847615 a 23.42412,32.631554 0 0 0 12.41272,-28.8007871 23.42412,32.631554 0 0 0 -23.42408,-32.6316479 23.42412,32.631554 0 0 0 -6.06279,1.111799 z"
         inkscape:path-effect="#path-effect40" /><ellipse
         style="display:inline;fill:#bb6d3b;fill-opacity:1;stroke-width:0.265865"
         id="path39"
         cx="240.67009"
         cy="-1.1128368"
         rx="19.782446"
         ry="27.55843"
         transform="matrix(0.91234218,0.40942855,-0.40354008,0.91496197,0,0)" /></g><path
       style="display:inline;fill:#6e7e61;fill-opacity:1;stroke-width:0.264583"
       d="m 180.20498,211.78502 c 0,0 -1.78285,-7.75485 -2.15318,-11.70449 -0.34017,-3.62798 -0.42927,-7.30691 -0.0552,-10.93155 0.36128,-3.50067 1.06718,-6.99515 2.20839,-10.32425 1.15305,-3.36364 2.69846,-6.62603 4.63763,-9.60651 1.82995,-2.8126 4.11707,-5.32671 6.51476,-7.67417 3.35585,-3.28555 6.99203,-6.33208 10.93155,-8.88879 2.76843,-1.79669 5.82172,-3.12255 8.83358,-4.472 3.26533,-1.46302 6.58167,-2.84021 9.99299,-3.9199 2.96181,-0.93741 6.01491,-1.56617 9.05441,-2.20839 1.967,-0.41561 5.54119,-1.01746 6.87644,-1.23901 0.28808,-0.0478 0.55411,0.14867 0.59302,0.43832 0.21625,1.60988 0.85709,6.5362 0.97765,9.2478 0.13571,3.05243 0.0275,6.1155 -0.16563,9.16483 -0.17199,2.71582 -0.45586,5.42838 -0.88335,8.11585 -0.35154,2.21002 -0.74338,4.42472 -1.38025,6.56998 -1.02808,3.46301 -2.28901,6.88012 -3.9199,10.1034 -1.51663,2.99745 -3.46802,5.76164 -5.41057,8.50232 -1.20498,1.70007 -2.45153,3.38227 -3.86469,4.91368 -1.59852,1.73228 -3.34879,3.33118 -5.18973,4.80325 -2.51168,2.00842 -5.21025,3.78206 -7.95021,5.46578 -3.10837,1.91012 -6.38355,3.53527 -9.60652,5.24494 -1.81051,0.96041 -3.75036,1.69425 -5.46578,2.8157 -1.58778,1.038 -3.07639,2.24632 -4.41679,3.58864 -1.32211,1.324 -2.45105,2.83534 -3.53343,4.36158 -1.17588,1.65808 -3.20217,5.18973 -3.20217,5.18973 0,0 -0.20971,-3.79079 -0.16563,-5.68662 0.0566,-2.43554 0.16493,-4.88247 0.5521,-7.2877 0.50931,-3.16403 1.24352,-6.31149 2.31882,-9.33047 1.08555,-3.04776 2.43147,-6.03143 4.14074,-8.77837 2.01345,-3.23579 4.46557,-6.21135 7.12207,-8.94399 2.46701,-2.53771 5.40163,-4.57466 8.11585,-6.84603 1.94437,-1.62713 3.93691,-3.19724 5.85224,-4.85846 1.5945,-1.38296 3.24177,-2.71838 4.69284,-4.25116 1.20533,-1.2732 2.35809,-2.61488 3.31259,-4.08553 1.03582,-1.59594 2.58546,-5.08871 2.58546,-5.08871 0,0 -2.13524,2.24992 -3.30319,3.26678 -1.78225,1.55169 -3.74185,2.88729 -5.6314,4.30637 -1.46276,1.09856 -2.92321,2.2011 -4.41679,3.25738 -1.63363,1.15533 -3.34516,2.19859 -4.96889,3.3678 -1.99232,1.43463 -3.95006,2.91984 -5.85225,4.472 -1.60694,1.31123 -3.20662,2.6389 -4.69283,4.08553 -1.77332,1.72609 -3.54763,3.47981 -5.0241,5.46578 -1.09783,1.47667 -1.93774,3.13096 -2.8157,4.74805 -0.95033,1.75038 -1.89836,3.51093 -2.65008,5.35535 -0.60624,1.48746 -1.05789,3.03556 -1.49066,4.58242 -0.43297,1.54757 -1.10421,4.69284 -1.10421,4.69284 z"
       id="path69"
       sodipodi:nodetypes="cssssssssscssssssssssssscssssssssscssssssssssc"
       inkscape:original-d="m 180.20498,211.78502 c 0,0 -1.78285,-7.75485 -2.15318,-11.70449 -0.34017,-3.62798 -0.42927,-7.30691 -0.0552,-10.93155 0.36128,-3.50067 1.06718,-6.99515 2.20839,-10.32425 1.15305,-3.36364 2.69846,-6.62603 4.63763,-9.60651 1.82995,-2.8126 4.11707,-5.32671 6.51476,-7.67417 3.35585,-3.28555 6.99203,-6.33208 10.93155,-8.88879 2.76843,-1.79669 5.82172,-3.12255 8.83358,-4.472 3.26533,-1.46302 6.58167,-2.84021 9.99299,-3.9199 2.96181,-0.93741 6.01491,-1.56617 9.05441,-2.20839 2.45117,-0.51791 7.39813,-1.32504 7.39813,-1.32504 0,0 0.90346,6.49929 1.04898,9.77215 0.13571,3.05243 0.0275,6.1155 -0.16563,9.16483 -0.17199,2.71582 -0.45586,5.42838 -0.88335,8.11585 -0.35154,2.21002 -0.74338,4.42472 -1.38025,6.56998 -1.02808,3.46301 -2.28901,6.88012 -3.9199,10.1034 -1.51663,2.99745 -3.46802,5.76164 -5.41057,8.50232 -1.20498,1.70007 -2.45153,3.38227 -3.86469,4.91368 -1.59852,1.73228 -3.34879,3.33118 -5.18973,4.80325 -2.51168,2.00842 -5.21025,3.78206 -7.95021,5.46578 -3.10837,1.91012 -6.38355,3.53527 -9.60652,5.24494 -1.81051,0.96041 -3.75036,1.69425 -5.46578,2.8157 -1.58778,1.038 -3.07639,2.24632 -4.41679,3.58864 -1.32211,1.324 -2.45105,2.83534 -3.53343,4.36158 -1.17588,1.65808 -3.20217,5.18973 -3.20217,5.18973 0,0 -0.20971,-3.79079 -0.16563,-5.68662 0.0566,-2.43554 0.16493,-4.88247 0.5521,-7.2877 0.50931,-3.16403 1.24352,-6.31149 2.31882,-9.33047 1.08555,-3.04776 2.43147,-6.03143 4.14074,-8.77837 2.01345,-3.23579 4.46557,-6.21135 7.12207,-8.94399 2.46701,-2.53771 5.40163,-4.57466 8.11585,-6.84603 1.94437,-1.62713 3.93691,-3.19724 5.85224,-4.85846 1.5945,-1.38296 3.24177,-2.71838 4.69284,-4.25116 1.20533,-1.2732 2.35809,-2.61488 3.31259,-4.08553 1.03582,-1.59594 2.58546,-5.08871 2.58546,-5.08871 0,0 -2.13524,2.24992 -3.30319,3.26678 -1.78225,1.55169 -3.74185,2.88729 -5.6314,4.30637 -1.46276,1.09856 -2.92321,2.2011 -4.41679,3.25738 -1.63363,1.15533 -3.34516,2.19859 -4.96889,3.3678 -1.99232,1.43463 -3.95006,2.91984 -5.85225,4.472 -1.60694,1.31123 -3.20662,2.6389 -4.69283,4.08553 -1.77332,1.72609 -3.54763,3.47981 -5.0241,5.46578 -1.09783,1.47667 -1.93774,3.13096 -2.8157,4.74805 -0.95033,1.75038 -1.89836,3.51093 -2.65008,5.35535 -0.60624,1.48746 -1.05789,3.03556 -1.49066,4.58242 -0.43297,1.54757 -1.10421,4.69284 -1.10421,4.69284 z"
       inkscape:path-effect="#path-effect70"
       inkscape:label="leaf" /></g></svg>
