<?xml version="1.0" encoding="UTF-8" standalone="no"?>
<!-- Created with Inkscape (http://www.inkscape.org/) -->

<svg
   width="1280"
   height="720"
   viewBox="0 0 338.66665 190.5"
   version="1.1"
   id="svg1046"
   inkscape:version="1.1.2 (0a00cf5339, 2022-02-04, custom)"
   sodipodi:docname="default_image.svg"
   xmlns:inkscape="http://www.inkscape.org/namespaces/inkscape"
   xmlns:sodipodi="http://sodipodi.sourceforge.net/DTD/sodipodi-0.dtd"
   xmlns="http://www.w3.org/2000/svg"
   xmlns:svg="http://www.w3.org/2000/svg">
  <sodipodi:namedview
     id="namedview1048"
     pagecolor="#ffffff"
     bordercolor="#666666"
     borderopacity="1.0"
     inkscape:pageshadow="2"
     inkscape:pageopacity="0.0"
     inkscape:pagecheckerboard="0"
     inkscape:document-units="mm"
     showgrid="false"
     units="px"
     inkscape:zoom="0.76257015"
     inkscape:cx="787.9627"
     inkscape:cy="450.11436"
     inkscape:window-width="2560"
     inkscape:window-height="1405"
     inkscape:window-x="1920"
     inkscape:window-y="0"
     inkscape:window-maximized="1"
     inkscape:current-layer="layer1" />
  <defs
     id="defs1043" />
  <g
     inkscape:label="Calque 1"
     inkscape:groupmode="layer"
     id="layer1">
    <rect
       style="opacity:0.991315;fill:#999999;fill-opacity:1;stroke:none;stroke-width:1;stroke-linecap:round;stroke-linejoin:round"
       id="rect5151"
       width="338.66666"
       height="190.5"
       x="6.9388939e-18"
       y="-2.7755576e-17" />
    <g
       id="g6198"
       transform="matrix(2.2201946,0,0,2.2201946,-12.120191,-39.419353)">
      <g
         id="g5723"
         transform="translate(-0.5094775,1.5875)">
        <path
           style="fill:none;stroke:#000000;stroke-width:3.175;stroke-linecap:round;stroke-linejoin:miter;stroke-miterlimit:4;stroke-dasharray:none;stroke-opacity:0.5"
           d="m 99.471493,60.090308 h 2.856687"
           id="path1551" />
        <path
           style="fill:none;stroke:#000000;stroke-width:3.175;stroke-linecap:round;stroke-linejoin:miter;stroke-miterlimit:4;stroke-dasharray:none;stroke-opacity:0.5"
           d="M 65.038875,60.090308 H 62.148086"
           id="path1586" />
      </g>
      <path
         style="fill:none;stroke:#000000;stroke-width:3.175;stroke-linecap:round;stroke-linejoin:miter;stroke-miterlimit:4;stroke-dasharray:none;stroke-opacity:0.5"
         d="M 84.917265,47.306692 H 78.539609"
         id="path2744" />
      <path
         id="path2859"
         style="color:#000000;fill:#000000;fill-opacity:0.5;stroke-width:3.77953;stroke-linecap:round;stroke-linejoin:round;-inkscape-stroke:none"
         d="m 264.5,217.46875 c -31.3494,0 -53.15039,21.5332 -53.15039,21.5332 a 5.9998628,5.9998628 0 0 0 -1.82422,4.30469 v 61.36524 a 5.9998628,5.9998628 0 0 0 6.00195,6.00195 h 98.00196 a 5.9998628,5.9998628 0 0 0 6.00195,-6.00195 v -61.36524 a 5.9998628,5.9998628 0 0 0 -1.82422,-4.3125 c 0,0 -21.85762,-21.52539 -53.20703,-21.52539 z m 0,11.99609 c 12.23414,0 22.5445,3.81245 30.04102,7.83985 h -60.04883 c 7.48156,-4.02788 17.77681,-7.83985 30.00781,-7.83985 z m -42.9707,19.8418 h 85.99804 v 49.36328 H 221.5293 Z"
         transform="matrix(0.26458333,0,0,0.26458333,11.738653,-6.6052016)" />
      <path
         style="fill:none;stroke:none;stroke-width:3.17461;stroke-linecap:round;stroke-linejoin:round;stroke-miterlimit:4;stroke-dasharray:none;stroke-opacity:1"
         d="m 94.693433,57.769361 c 0,0 -5.412503,-5.248778 -12.972333,-5.248778 -7.55983,0 -12.957222,5.248778 -12.957222,5.248778 l 2e-6,16.236249 h 25.929553 z"
         id="backup"
         sodipodi:nodetypes="czcccc" />
    </g>
    <path
       style="fill:#000000;fill-opacity:0.5;stroke:none;stroke-width:2.41541;stroke-linecap:butt;stroke-linejoin:miter;stroke-miterlimit:4;stroke-dasharray:none;stroke-opacity:1"
       d="M 238.49947,-0.070954 V 49.777111 L 250.00284,39.31824 261.50621,49.777111 V -0.070954 Z"
       id="path12090"
       sodipodi:nodetypes="cccccc" />
    <path
       style="fill:#ff9900;fill-opacity:1;stroke:none;stroke-width:2.41541;stroke-linecap:butt;stroke-linejoin:miter;stroke-miterlimit:4;stroke-dasharray:none;stroke-opacity:1"
       d="m 234.66503,-0.070954 v 46.013465 l 11.50337,-10.45887 11.50337,10.45887 V -0.070954 Z"
       id="path2590"
       sodipodi:nodetypes="cccccc" />
  </g>
</svg>
